<svg width="192" height="44" viewBox="0 0 192 44" fill="none" xmlns="http://www.w3.org/2000/svg">
<path d="M9.63721 35.5867C7.02085 35.5867 4.9553 34.7146 3.34877 32.9703C1.74223 31.2261 0.961914 28.9311 0.961914 26.0852V17.9607C0.961914 15.1148 1.74223 12.7739 3.34877 11.0297C4.9553 9.28542 7.02085 8.4133 9.63721 8.4133C11.3355 8.4133 12.8044 8.78051 14.0437 9.46902C15.283 10.2034 16.2011 11.1674 16.7978 12.4526H16.9355V0.288818H19.3223V35.1277H16.9355V31.5474H16.7978C16.247 32.8326 15.3289 33.7966 14.0437 34.531C12.8044 35.2654 11.3355 35.5867 9.63721 35.5867ZM10.1421 33.5671C12.2995 33.5671 13.9519 32.9244 15.1453 31.5933C16.3388 30.2622 16.9355 28.472 16.9355 26.1311V17.9607C16.9355 15.6198 16.3388 13.7837 15.1453 12.4526C13.9519 11.1215 12.2995 10.4788 10.1421 10.4788C8.03067 10.4788 6.37823 11.1215 5.18481 12.4526C3.99138 13.7837 3.39467 15.6198 3.39467 17.9607V26.1311C3.39467 28.472 3.99138 30.2622 5.18481 31.5933C6.37823 32.9244 7.98477 33.5671 10.1421 33.5671Z" fill="#FCFDFD"/>
<path d="M35.6631 35.5866C32.7255 35.5866 30.4763 34.7145 28.8239 32.9703C27.1714 31.226 26.3452 28.931 26.3452 26.0392V17.9606C26.3452 15.0689 27.1714 12.7738 28.8239 11.0296C30.4763 9.28533 32.7714 8.41321 35.6631 8.41321C38.5549 8.41321 40.804 9.28533 42.4565 11.0296C44.1089 12.7738 44.8892 15.0689 44.8892 17.9606V22.5048H28.7321V26.0851C28.7321 28.3802 29.3288 30.1703 30.5222 31.5014C31.7156 32.8326 33.4599 33.5211 35.6631 33.5211C37.4533 33.5211 38.9221 33.108 40.0696 32.2358C41.2171 31.3637 42.0434 30.2162 42.4565 28.7015H44.8433C44.3843 30.8129 43.3286 32.5112 41.7221 33.7506C40.1155 34.9899 38.0959 35.5866 35.6631 35.5866ZM28.7321 20.4393H42.5024V17.9606C42.5024 15.6656 41.9057 13.8754 40.7122 12.4984C39.5188 11.1673 37.8205 10.4788 35.6631 10.4788C33.4599 10.4788 31.7156 11.1214 30.5222 12.4525C29.3288 13.7836 28.7321 15.5738 28.7321 17.9147V20.4393Z" fill="#FCFDFD"/>
<path d="M61.7807 35.5408C59.7611 35.5408 58.0168 35.2195 56.5021 34.6228C54.9874 33.9802 53.7939 33.1081 52.9677 31.9605C52.1415 30.813 51.7284 29.4819 51.7284 27.9213H57.7414C57.7414 28.8393 58.1086 29.5737 58.8431 30.0327C59.5775 30.5376 60.5873 30.7671 61.8725 30.7671H63.9381C65.4069 30.7671 66.5544 30.4917 67.2888 29.9409C68.0233 29.3901 68.3905 28.6557 68.3905 27.6918C68.3905 25.8557 67.0593 24.7541 64.3512 24.341L60.6791 23.882C55.171 23.1017 52.4628 20.4853 52.4628 16.0329C52.4628 13.5542 53.289 11.6723 54.9415 10.3871C56.5939 9.10184 59.0267 8.45923 62.1938 8.45923H63.984C66.9216 8.45923 69.3085 9.10184 71.0986 10.433C72.8888 11.7641 73.8068 13.5083 73.8068 15.6657H67.7937C67.7937 14.8854 67.4724 14.2887 66.7839 13.8755C66.0954 13.4624 65.1774 13.2329 63.9381 13.2329H62.1479C59.5316 13.2329 58.2463 14.151 58.2463 16.0329C58.2463 17.6394 59.3939 18.6493 61.7348 18.9706L65.4528 19.5214C68.3905 19.9345 70.5937 20.8066 72.0166 22.0918C73.4396 23.3771 74.174 25.2131 74.174 27.5082C74.174 30.0327 73.3019 31.9605 71.6035 33.3835C69.8593 34.7605 67.3347 35.4949 63.984 35.4949H61.7807V35.5408Z" fill="#FCFDFD"/>
<path d="M91.4788 35.5869C89.2755 35.5869 87.3018 35.1737 85.6493 34.3016C83.9969 33.4754 82.7117 32.282 81.7937 30.7213C80.8756 29.1607 80.4166 27.3706 80.4166 25.2591V18.6953C80.4166 16.5838 80.8756 14.7937 81.7937 13.2331C82.7117 11.6724 83.9969 10.479 85.6493 9.65278C87.3018 8.82656 89.2755 8.36755 91.4788 8.36755C94.7836 8.36755 97.4 9.23967 99.3737 10.938C101.347 12.6363 102.357 14.9773 102.449 17.8691H96.6656C96.5738 16.492 96.0689 15.4363 95.105 14.7019C94.1869 13.9675 92.9476 13.6003 91.4788 13.6003C89.8722 13.6003 88.6329 14.0593 87.7149 14.9314C86.7969 15.8035 86.3379 17.0428 86.3379 18.6953V25.305C86.3379 26.9116 86.7969 28.1968 87.7149 29.0689C88.6329 29.941 89.8722 30.4 91.4788 30.4C92.9935 30.4 94.2328 30.0328 95.1508 29.2984C96.0689 28.564 96.5738 27.5083 96.6656 26.1312H102.449C102.357 29.0689 101.302 31.364 99.3737 33.0623C97.4 34.7606 94.7836 35.5869 91.4788 35.5869Z" fill="#FCFDFD"/>
<path d="M140.914 43.7113V8.87246H146.698V13.6003H146.789C147.248 11.9478 148.121 10.6626 149.314 9.74458C150.553 8.82656 152.068 8.36755 153.858 8.36755C156.429 8.36755 158.494 9.28557 160.055 11.0757C161.615 12.9118 162.396 15.2986 162.396 18.374V25.4886C162.396 28.564 161.615 31.0427 160.055 32.8328C158.494 34.6229 156.429 35.541 153.858 35.541C152.068 35.541 150.599 35.0819 149.36 34.1639C148.121 33.2459 147.248 31.9607 146.789 30.3082H146.698L146.835 36.2754V43.6195H140.914V43.7113ZM151.701 30.4459C153.216 30.4459 154.409 29.9869 155.235 29.1148C156.061 28.2427 156.475 26.9575 156.475 25.305V18.6953C156.475 17.0428 156.061 15.7576 155.235 14.8855C154.409 14.0134 153.216 13.5544 151.701 13.5544C150.186 13.5544 148.993 14.0134 148.121 14.9314C147.248 15.8494 146.835 17.1346 146.835 18.833V25.1214C146.835 26.8198 147.248 28.105 148.121 29.023C148.993 29.9869 150.186 30.4459 151.701 30.4459Z" fill="#FCFDFD"/>
<path d="M180.114 35.5866C177.91 35.5866 175.937 35.1735 174.33 34.3014C172.678 33.4293 171.392 32.2358 170.52 30.7211C169.602 29.1605 169.143 27.3703 169.143 25.3048V18.695C169.143 16.6295 169.602 14.8394 170.52 13.2787C171.438 11.7181 172.678 10.5247 174.33 9.69844C175.983 8.82632 177.91 8.41321 180.114 8.41321C182.317 8.41321 184.199 8.82632 185.851 9.69844C187.504 10.5706 188.743 11.764 189.661 13.2787C190.579 14.7935 191.038 16.6295 191.038 18.695V23.4228H174.927V25.3048C174.927 29.0228 176.671 30.9047 180.205 30.9047C182.914 30.9047 184.52 29.9867 185.025 28.1965H190.854C190.395 30.4457 189.202 32.2817 187.274 33.6129C185.255 34.944 182.914 35.5866 180.114 35.5866ZM174.881 18.695V19.7049L185.255 19.659V18.6491C185.255 16.859 184.841 15.4361 183.969 14.4721C183.097 13.5082 181.812 13.0033 180.114 13.0033C178.369 13.0033 177.084 13.5082 176.212 14.4721C175.294 15.482 174.881 16.9049 174.881 18.695Z" fill="#FCFDFD"/>
<path d="M124.986 19.0623L126.272 17.0427L123.655 15.6656L122.554 17.7771C122.37 18.0984 122.095 18.282 121.727 18.282C121.36 18.282 121.085 18.0984 120.901 17.7771L119.8 15.6656L117.183 17.0427L119.019 19.9344L124.986 19.0623Z" fill="url(#paint0_linear_1305_7148)"/>
<path d="M128.291 20.5312L115.301 20.6231V23.2394H119.386L117.183 26.7738L119.8 28.1508L120.901 26.0394C121.085 25.7181 121.36 25.5345 121.727 25.5345C122.095 25.5345 122.37 25.7181 122.554 26.0394L123.655 28.1508L126.272 26.7738L124.481 23.9279L121.085 23.2853L128.291 23.2394V20.5312Z" fill="url(#paint1_linear_1305_7148)"/>
<path d="M126.409 31.9147C127.557 31.6852 128.475 31.1802 129.255 30.4917C130.403 29.436 130.54 27.9672 130.54 26.1311V18.0066C130.54 16.1706 130.357 14.7477 129.255 13.6461C128.475 12.9116 127.557 12.4526 126.409 12.2231V8.32153C128.245 8.59694 129.806 9.28545 130.999 10.433C132.56 11.9018 133.937 13.9215 133.937 16.446V27.5541C133.937 30.0786 132.56 32.0524 130.999 33.5671C129.806 34.7146 128.245 35.4031 126.409 35.6785V31.9147Z" fill="url(#paint2_linear_1305_7148)"/>
<path d="M112.226 10.433C113.419 9.28545 114.98 8.59694 116.816 8.32153V12.2231C115.669 12.4526 114.751 12.9575 113.97 13.6461C112.823 14.7018 112.685 16.1706 112.685 17.9607V26.1311C112.685 27.9672 112.869 29.3901 113.97 30.4917C114.751 31.2261 115.669 31.6852 116.816 31.9147V35.6326C114.98 35.3572 113.419 34.6687 112.226 33.5212C110.665 32.0524 109.288 30.0327 109.288 27.5082V16.4001C109.288 13.9215 110.665 11.9477 112.226 10.433Z" fill="url(#paint3_linear_1305_7148)"/>
<defs>
<linearGradient id="paint0_linear_1305_7148" x1="110.475" y1="34.5283" x2="127.736" y2="7.72384" gradientUnits="userSpaceOnUse">
<stop stop-color="#0082B5"/>
<stop offset="0.4173" stop-color="#00FFFF"/>
<stop offset="1" stop-color="#6FF12D"/>
</linearGradient>
<linearGradient id="paint1_linear_1305_7148" x1="112.834" y1="36.0475" x2="130.095" y2="9.24303" gradientUnits="userSpaceOnUse">
<stop stop-color="#0082B5"/>
<stop offset="0.4173" stop-color="#00FFFF"/>
<stop offset="1" stop-color="#6FF12D"/>
</linearGradient>
<linearGradient id="paint2_linear_1305_7148" x1="117.316" y1="38.9336" x2="134.577" y2="12.1291" gradientUnits="userSpaceOnUse">
<stop stop-color="#0082B5"/>
<stop offset="0.4173" stop-color="#00FFFF"/>
<stop offset="1" stop-color="#6FF12D"/>
</linearGradient>
<linearGradient id="paint3_linear_1305_7148" x1="107.963" y1="32.9107" x2="125.224" y2="6.1062" gradientUnits="userSpaceOnUse">
<stop stop-color="#0082B5"/>
<stop offset="0.4173" stop-color="#00FFFF"/>
<stop offset="1" stop-color="#6FF12D"/>
</linearGradient>
</defs>
</svg>
