<svg width="252" height="63" viewBox="0 0 252 63" fill="none" xmlns="http://www.w3.org/2000/svg">
<path d="M0 0H252V58H0V0Z" fill="url(#paint0_linear_9_11)"/>
<rect y="56" width="252" height="2" fill="#7DEDED"/>
<path d="M42.8252 30.6364C42.8252 35.0246 42.0032 38.7831 40.3593 41.9119C38.7286 45.0275 36.5013 47.4138 33.6775 49.071C30.8668 50.7282 27.6784 51.5568 24.1121 51.5568C20.5458 51.5568 17.3508 50.7282 14.5269 49.071C11.7163 47.4006 9.48901 45.0076 7.84507 41.892C6.21439 38.7633 5.39905 35.0114 5.39905 30.6364C5.39905 26.2481 6.21439 22.4962 7.84507 19.3807C9.48901 16.2519 11.7163 13.8589 14.5269 12.2017C17.3508 10.5445 20.5458 9.71591 24.1121 9.71591C27.6784 9.71591 30.8668 10.5445 33.6775 12.2017C36.5013 13.8589 38.7286 16.2519 40.3593 19.3807C42.0032 22.4962 42.8252 26.2481 42.8252 30.6364ZM35.4076 30.6364C35.4076 27.5473 34.9237 24.9422 33.9559 22.821C33.0013 20.6866 31.6756 19.0758 29.9786 17.9886C28.2816 16.8883 26.3261 16.3381 24.1121 16.3381C21.8981 16.3381 19.9426 16.8883 18.2456 17.9886C16.5487 19.0758 15.2163 20.6866 14.2485 22.821C13.2939 24.9422 12.8167 27.5473 12.8167 30.6364C12.8167 33.7254 13.2939 36.3371 14.2485 38.4716C15.2163 40.5928 16.5487 42.2036 18.2456 43.304C19.9426 44.3911 21.8981 44.9347 24.1121 44.9347C26.3261 44.9347 28.2816 44.3911 29.9786 43.304C31.6756 42.2036 33.0013 40.5928 33.9559 38.4716C34.9237 36.3371 35.4076 33.7254 35.4076 30.6364ZM55.561 33.1023V51H48.3621V20.4545H55.2428V25.6449H55.6008C56.3034 23.9347 57.4237 22.5758 58.9616 21.5682C60.5127 20.5606 62.4284 20.0568 64.7087 20.0568C66.8167 20.0568 68.6529 20.5076 70.2173 21.4091C71.7949 22.3106 73.0146 23.6165 73.8763 25.3267C74.7513 27.0369 75.1822 29.1117 75.169 31.5511V51H67.9701V32.6648C67.9701 30.6231 67.4398 29.0256 66.3792 27.8722C65.3318 26.7187 63.8801 26.142 62.0241 26.142C60.7646 26.142 59.6443 26.4205 58.6633 26.9773C57.6955 27.5208 56.9332 28.3097 56.3763 29.3438C55.8328 30.3778 55.561 31.6307 55.561 33.1023ZM94.8899 51.5966C91.8274 51.5966 89.1825 50.9602 86.9552 49.6875C84.7412 48.4015 83.0376 46.5852 81.8444 44.2386C80.6512 41.8788 80.0546 39.1013 80.0546 35.9062C80.0546 32.7642 80.6512 30.0066 81.8444 27.6335C83.0509 25.2472 84.7346 23.3911 86.8956 22.0653C89.0565 20.7263 91.5954 20.0568 94.512 20.0568C96.3946 20.0568 98.1711 20.3617 99.8416 20.9716C101.525 21.5682 103.01 22.4962 104.296 23.7557C105.595 25.0152 106.616 26.6193 107.359 28.5682C108.101 30.5038 108.472 32.8106 108.472 35.4886V37.696H83.4353V32.8438H101.572C101.558 31.465 101.26 30.2386 100.677 29.1648C100.093 28.0777 99.2781 27.2225 98.2308 26.5994C97.1967 25.9763 95.9903 25.6648 94.6115 25.6648C93.1399 25.6648 91.8473 26.0227 90.7336 26.7386C89.62 27.4413 88.7516 28.3693 88.1285 29.5227C87.5187 30.6629 87.2071 31.9157 87.1939 33.2812V37.517C87.1939 39.2936 87.5187 40.8182 88.1683 42.0909C88.8179 43.3504 89.726 44.3182 90.8927 44.9943C92.0594 45.6572 93.4249 45.9886 94.9893 45.9886C96.0367 45.9886 96.9846 45.8428 97.8331 45.5511C98.6815 45.2462 99.4173 44.8021 100.04 44.2188C100.664 43.6354 101.134 42.9129 101.452 42.0511L108.174 42.8068C107.75 44.5833 106.941 46.1345 105.748 47.4602C104.568 48.7727 103.057 49.7936 101.214 50.5227C99.3709 51.2386 97.263 51.5966 94.8899 51.5966ZM124.741 16.4574V10.2727H157.236V16.4574H144.648V51H137.33V16.4574H124.741ZM166.695 51.6165C164.76 51.6165 163.016 51.2718 161.465 50.5824C159.927 49.8797 158.708 48.8456 157.806 47.4801C156.918 46.1146 156.474 44.4309 156.474 42.429C156.474 40.7055 156.792 39.2803 157.428 38.1534C158.065 37.0265 158.933 36.125 160.033 35.4489C161.134 34.7727 162.373 34.2623 163.752 33.9176C165.144 33.5597 166.583 33.3011 168.068 33.142C169.857 32.9564 171.309 32.7907 172.423 32.6449C173.536 32.4858 174.345 32.2472 174.849 31.929C175.366 31.5975 175.624 31.0871 175.624 30.3977V30.2784C175.624 28.7803 175.18 27.6203 174.292 26.7983C173.404 25.9763 172.124 25.5653 170.454 25.5653C168.691 25.5653 167.292 25.9498 166.258 26.7188C165.237 27.4877 164.548 28.3958 164.19 29.4432L157.468 28.4886C157.998 26.6326 158.873 25.0814 160.093 23.8352C161.313 22.5758 162.804 21.6345 164.568 21.0114C166.331 20.375 168.28 20.0568 170.414 20.0568C171.886 20.0568 173.351 20.2292 174.809 20.5739C176.267 20.9186 177.6 21.4886 178.806 22.2841C180.013 23.0663 180.98 24.1335 181.71 25.4858C182.452 26.8381 182.823 28.5284 182.823 30.5568V51H175.903V46.804H175.664C175.227 47.6525 174.61 48.4479 173.815 49.1903C173.032 49.9195 172.045 50.5095 170.852 50.9602C169.672 51.3977 168.286 51.6165 166.695 51.6165ZM168.565 46.3267C170.01 46.3267 171.263 46.0417 172.323 45.4716C173.384 44.8883 174.199 44.1193 174.769 43.1648C175.353 42.2102 175.644 41.1695 175.644 40.0426V36.4432C175.419 36.6288 175.034 36.8011 174.491 36.9602C173.96 37.1193 173.364 37.2585 172.701 37.3778C172.038 37.4972 171.382 37.6032 170.732 37.696C170.083 37.7888 169.519 37.8684 169.042 37.9347C167.968 38.0805 167.007 38.3191 166.158 38.6506C165.31 38.982 164.64 39.446 164.15 40.0426C163.659 40.6259 163.414 41.3816 163.414 42.3097C163.414 43.6354 163.898 44.6364 164.866 45.3125C165.834 45.9886 167.067 46.3267 168.565 46.3267ZM188.942 62.4545V20.4545H196.021V25.5057H196.439C196.81 24.7633 197.334 23.9744 198.01 23.1392C198.686 22.2907 199.601 21.5682 200.754 20.9716C201.908 20.3617 203.379 20.0568 205.169 20.0568C207.529 20.0568 209.657 20.66 211.553 21.8665C213.462 23.0597 214.973 24.8295 216.087 27.1761C217.214 29.5095 217.777 32.3731 217.777 35.767C217.777 39.1212 217.227 41.9716 216.126 44.3182C215.026 46.6648 213.528 48.4545 211.632 49.6875C209.736 50.9205 207.589 51.5369 205.189 51.5369C203.439 51.5369 201.987 51.2453 200.834 50.6619C199.68 50.0786 198.752 49.3759 198.05 48.554C197.36 47.7187 196.823 46.9299 196.439 46.1875H196.141V62.4545H188.942ZM196.001 35.7273C196.001 37.7027 196.28 39.4328 196.837 40.9176C197.407 42.4025 198.222 43.5625 199.283 44.3977C200.357 45.2197 201.656 45.6307 203.18 45.6307C204.771 45.6307 206.104 45.2064 207.178 44.358C208.251 43.4962 209.06 42.3229 209.604 40.8381C210.161 39.34 210.439 37.6364 210.439 35.7273C210.439 33.8314 210.167 32.1477 209.624 30.6761C209.08 29.2045 208.271 28.0511 207.198 27.2159C206.124 26.3807 204.785 25.9631 203.18 25.9631C201.643 25.9631 200.337 26.3674 199.263 27.1761C198.189 27.9848 197.374 29.1184 196.817 30.5767C196.273 32.035 196.001 33.7519 196.001 35.7273ZM229.703 39.0284V38.5114C229.716 36.1117 229.941 34.2027 230.379 32.7841C230.829 31.3655 231.466 30.2254 232.288 29.3636C233.11 28.4886 234.111 27.6866 235.291 26.9574C236.099 26.4536 236.822 25.9034 237.458 25.3068C238.108 24.697 238.618 24.0208 238.989 23.2784C239.361 22.5227 239.546 21.6809 239.546 20.7528C239.546 19.7055 239.301 18.7973 238.81 18.0284C238.32 17.2595 237.657 16.6629 236.822 16.2386C236 15.8144 235.078 15.6023 234.058 15.6023C233.116 15.6023 232.221 15.8078 231.373 16.2188C230.538 16.6165 229.842 17.2263 229.285 18.0483C228.741 18.857 228.436 19.8845 228.37 21.1307H221.291C221.357 18.6117 221.967 16.5038 223.12 14.8068C224.287 13.1098 225.825 11.8371 227.734 10.9886C229.656 10.1401 231.777 9.71591 234.097 9.71591C236.63 9.71591 238.857 10.16 240.779 11.0483C242.715 11.9366 244.22 13.2027 245.293 14.8466C246.381 16.4773 246.924 18.4129 246.924 20.6534C246.924 22.1648 246.679 23.517 246.188 24.7102C245.711 25.9034 245.028 26.964 244.14 27.892C243.252 28.8201 242.198 29.6487 240.978 30.3778C239.904 31.0407 239.023 31.7301 238.333 32.446C237.657 33.1619 237.153 34.0038 236.822 34.9716C236.504 35.9261 236.338 37.1061 236.325 38.5114V39.0284H229.703ZM233.163 51.4375C231.97 51.4375 230.942 51.0133 230.08 50.1648C229.219 49.3163 228.788 48.2822 228.788 47.0625C228.788 45.8693 229.219 44.8485 230.08 44C230.942 43.1515 231.97 42.7273 233.163 42.7273C234.343 42.7273 235.364 43.1515 236.225 44C237.1 44.8485 237.538 45.8693 237.538 47.0625C237.538 47.8712 237.332 48.607 236.921 49.2699C236.524 49.9328 235.993 50.4631 235.33 50.8608C234.681 51.2453 233.958 51.4375 233.163 51.4375Z" fill="#0085FF"/>
<defs>
<linearGradient id="paint0_linear_9_11" x1="126" y1="58" x2="126.514" y2="9.66729" gradientUnits="userSpaceOnUse">
<stop stop-color="#0085FF"/>
<stop offset="0.265" stop-color="#69EAEA" stop-opacity="0.5"/>
<stop offset="0.649124" stop-color="#A4E185" stop-opacity="0.2"/>
<stop offset="1" stop-color="#A4E185" stop-opacity="0"/>
</linearGradient>
</defs>
</svg>
