<svg width="418" height="72" viewBox="0 0 418 72" fill="none" xmlns="http://www.w3.org/2000/svg">
<path d="M0 0H418V66H0V0Z" fill="url(#paint0_linear_1_11)"/>
<rect y="63" width="418" height="3" fill="#7DEDED"/>
<path d="M48.9207 34.7273C48.9207 39.803 47.9586 44.1212 46.0343 47.6818C44.1252 51.2424 41.5192 53.9621 38.2161 55.8409C34.9283 57.7045 31.2313 58.6364 27.1252 58.6364C22.9889 58.6364 19.2767 57.697 15.9889 55.8182C12.701 53.9394 10.1025 51.2197 8.1934 47.6591C6.28431 44.0985 5.32977 39.7879 5.32977 34.7273C5.32977 29.6515 6.28431 25.3333 8.1934 21.7727C10.1025 18.2121 12.701 15.5 15.9889 13.6364C19.2767 11.7576 22.9889 10.8182 27.1252 10.8182C31.2313 10.8182 34.9283 11.7576 38.2161 13.6364C41.5192 15.5 44.1252 18.2121 46.0343 21.7727C47.9586 25.3333 48.9207 29.6515 48.9207 34.7273ZM38.9434 34.7273C38.9434 31.4394 38.451 28.6667 37.4661 26.4091C36.4964 24.1515 35.1252 22.4394 33.3525 21.2727C31.5798 20.1061 29.504 19.5227 27.1252 19.5227C24.7464 19.5227 22.6707 20.1061 20.8979 21.2727C19.1252 22.4394 17.7464 24.1515 16.7616 26.4091C15.7919 28.6667 15.307 31.4394 15.307 34.7273C15.307 38.0152 15.7919 40.7879 16.7616 43.0455C17.7464 45.303 19.1252 47.0152 20.8979 48.1818C22.6707 49.3485 24.7464 49.9318 27.1252 49.9318C29.504 49.9318 31.5798 49.3485 33.3525 48.1818C35.1252 47.0152 36.4964 45.303 37.4661 43.0455C38.451 40.7879 38.9434 38.0152 38.9434 34.7273ZM64.4304 37.8182V58H54.7486V23.0909H63.9759V29.25H64.385C65.1577 27.2197 66.4532 25.6136 68.2714 24.4318C70.0895 23.2348 72.2941 22.6364 74.885 22.6364C77.3092 22.6364 79.4229 23.1667 81.2259 24.2273C83.0289 25.2879 84.4305 26.803 85.4305 28.7727C86.4305 30.7273 86.9305 33.0606 86.9305 35.7727V58H77.2486V37.5C77.2638 35.3636 76.7183 33.697 75.6123 32.5C74.5062 31.2879 72.9835 30.6818 71.0441 30.6818C69.7411 30.6818 68.5895 30.9621 67.5895 31.5227C66.6047 32.0833 65.832 32.9015 65.2714 33.9773C64.7259 35.0379 64.4456 36.3182 64.4304 37.8182ZM109.19 58.6818C105.599 58.6818 102.508 57.9545 99.9175 56.5C97.3417 55.0303 95.3569 52.9545 93.963 50.2727C92.569 47.5758 91.872 44.3864 91.872 40.7045C91.872 37.1136 92.569 33.9621 93.963 31.25C95.3569 28.5379 97.319 26.4242 99.8493 24.9091C102.395 23.3939 105.38 22.6364 108.804 22.6364C111.107 22.6364 113.251 23.0076 115.236 23.75C117.236 24.4773 118.978 25.5758 120.463 27.0455C121.963 28.5152 123.13 30.3636 123.963 32.5909C124.796 34.803 125.213 37.3939 125.213 40.3636V43.0227H95.7357V37.0227H116.099C116.099 35.6288 115.796 34.3939 115.19 33.3182C114.584 32.2424 113.743 31.4015 112.667 30.7955C111.607 30.1742 110.372 29.8636 108.963 29.8636C107.493 29.8636 106.19 30.2045 105.054 30.8864C103.933 31.553 103.054 32.4545 102.417 33.5909C101.781 34.7121 101.455 35.9621 101.44 37.3409V43.0455C101.44 44.7727 101.758 46.2652 102.395 47.5227C103.046 48.7803 103.963 49.75 105.145 50.4318C106.327 51.1136 107.728 51.4545 109.349 51.4545C110.425 51.4545 111.41 51.303 112.304 51C113.198 50.697 113.963 50.2424 114.599 49.6364C115.236 49.0303 115.721 48.2879 116.054 47.4091L125.008 48C124.554 50.1515 123.622 52.0303 122.213 53.6364C120.819 55.2273 119.016 56.4697 116.804 57.3636C114.607 58.2424 112.069 58.6818 109.19 58.6818ZM142.193 19.5682V11.4545H180.42V19.5682H166.17V58H156.443V19.5682H142.193ZM190.458 58.6591C188.231 58.6591 186.246 58.2727 184.504 57.5C182.761 56.7121 181.382 55.553 180.367 54.0227C179.367 52.4773 178.867 50.553 178.867 48.25C178.867 46.3106 179.223 44.6818 179.935 43.3636C180.648 42.0455 181.617 40.9848 182.845 40.1818C184.072 39.3788 185.466 38.7727 187.026 38.3636C188.602 37.9545 190.254 37.6667 191.981 37.5C194.011 37.2879 195.648 37.0909 196.89 36.9091C198.132 36.7121 199.034 36.4242 199.595 36.0455C200.155 35.6667 200.435 35.1061 200.435 34.3636V34.2273C200.435 32.7879 199.981 31.6742 199.072 30.8864C198.178 30.0985 196.905 29.7045 195.254 29.7045C193.511 29.7045 192.125 30.0909 191.095 30.8636C190.064 31.6212 189.382 32.5758 189.049 33.7273L180.095 33C180.549 30.8788 181.443 29.0455 182.776 27.5C184.11 25.9394 185.829 24.7424 187.935 23.9091C190.057 23.0606 192.511 22.6364 195.299 22.6364C197.238 22.6364 199.095 22.8636 200.867 23.3182C202.655 23.7727 204.238 24.4773 205.617 25.4318C207.011 26.3864 208.11 27.6136 208.913 29.1136C209.716 30.5985 210.117 32.3788 210.117 34.4545V58H200.935V53.1591H200.663C200.102 54.25 199.352 55.2121 198.413 56.0455C197.473 56.8636 196.345 57.5076 195.026 57.9773C193.708 58.4318 192.185 58.6591 190.458 58.6591ZM193.231 51.9773C194.655 51.9773 195.913 51.697 197.004 51.1364C198.095 50.5606 198.951 49.7879 199.572 48.8182C200.193 47.8485 200.504 46.75 200.504 45.5227V41.8182C200.201 42.0152 199.784 42.197 199.254 42.3636C198.738 42.5152 198.155 42.6591 197.504 42.7955C196.852 42.9167 196.201 43.0303 195.549 43.1364C194.898 43.2273 194.307 43.3106 193.776 43.3864C192.64 43.553 191.648 43.8182 190.799 44.1818C189.951 44.5455 189.292 45.0379 188.822 45.6591C188.352 46.2652 188.117 47.0227 188.117 47.9318C188.117 49.25 188.595 50.2576 189.549 50.9545C190.519 51.6364 191.746 51.9773 193.231 51.9773ZM216.349 71.0909V23.0909H225.894V28.9545H226.326C226.75 28.0152 227.364 27.0606 228.167 26.0909C228.985 25.1061 230.046 24.2879 231.349 23.6364C232.667 22.9697 234.303 22.6364 236.258 22.6364C238.803 22.6364 241.152 23.303 243.303 24.6364C245.455 25.9545 247.174 27.947 248.462 30.6136C249.75 33.2652 250.394 36.5909 250.394 40.5909C250.394 44.4848 249.765 47.7727 248.508 50.4545C247.265 53.1212 245.568 55.1439 243.417 56.5227C241.28 57.8864 238.887 58.5682 236.235 58.5682C234.356 58.5682 232.758 58.2576 231.44 57.6364C230.137 57.0152 229.068 56.2348 228.235 55.2955C227.402 54.3409 226.765 53.3788 226.326 52.4091H226.03V71.0909H216.349ZM225.826 40.5455C225.826 42.6212 226.114 44.4318 226.69 45.9773C227.265 47.5227 228.099 48.7273 229.19 49.5909C230.28 50.4394 231.606 50.8636 233.167 50.8636C234.743 50.8636 236.076 50.4318 237.167 49.5682C238.258 48.6894 239.083 47.4773 239.644 45.9318C240.22 44.3712 240.508 42.5758 240.508 40.5455C240.508 38.5303 240.227 36.7576 239.667 35.2273C239.106 33.697 238.28 32.5 237.19 31.6364C236.099 30.7727 234.758 30.3409 233.167 30.3409C231.591 30.3409 230.258 30.7576 229.167 31.5909C228.091 32.4242 227.265 33.6061 226.69 35.1364C226.114 36.6667 225.826 38.4697 225.826 40.5455ZM300.147 26.5C299.828 25.3939 299.381 24.4167 298.806 23.5682C298.23 22.7045 297.525 21.9773 296.692 21.3864C295.874 20.7803 294.934 20.3182 293.874 20C292.828 19.6818 291.669 19.5227 290.397 19.5227C288.018 19.5227 285.927 20.1136 284.124 21.2955C282.336 22.4773 280.942 24.197 279.942 26.4545C278.942 28.697 278.442 31.4394 278.442 34.6818C278.442 37.9242 278.934 40.6818 279.919 42.9545C280.904 45.2273 282.298 46.9621 284.101 48.1591C285.904 49.3409 288.033 49.9318 290.487 49.9318C292.715 49.9318 294.616 49.5379 296.192 48.75C297.783 47.947 298.995 46.8182 299.828 45.3636C300.677 43.9091 301.101 42.1894 301.101 40.2045L303.101 40.5H291.101V33.0909H310.578V38.9545C310.578 43.0455 309.715 46.5606 307.987 49.5C306.26 52.4242 303.881 54.6818 300.851 56.2727C297.821 57.8485 294.351 58.6364 290.442 58.6364C286.078 58.6364 282.245 57.6742 278.942 55.75C275.639 53.8106 273.063 51.0606 271.215 47.5C269.381 43.9242 268.465 39.6818 268.465 34.7727C268.465 31 269.01 27.6364 270.101 24.6818C271.207 21.7121 272.753 19.197 274.737 17.1364C276.722 15.0758 279.033 13.5076 281.669 12.4318C284.306 11.3561 287.162 10.8182 290.237 10.8182C292.874 10.8182 295.328 11.2045 297.601 11.9773C299.874 12.7348 301.889 13.8106 303.647 15.2045C305.419 16.5985 306.866 18.2576 307.987 20.1818C309.109 22.0909 309.828 24.197 310.147 26.5H300.147ZM338.895 43.1364V23.0909H348.577V58H339.281V51.6591H338.918C338.13 53.7045 336.819 55.3485 334.986 56.5909C333.168 57.8333 330.948 58.4545 328.327 58.4545C325.994 58.4545 323.94 57.9242 322.168 56.8636C320.395 55.803 319.009 54.2955 318.009 52.3409C317.024 50.3864 316.524 48.0455 316.509 45.3182V23.0909H326.19V43.5909C326.206 45.6515 326.759 47.2803 327.85 48.4773C328.94 49.6742 330.403 50.2727 332.236 50.2727C333.403 50.2727 334.494 50.0076 335.509 49.4773C336.524 48.9318 337.342 48.1288 337.963 47.0682C338.6 46.0076 338.91 44.697 338.895 43.1364ZM355.041 58V23.0909H364.427V29.1818H364.791C365.427 27.0152 366.496 25.3788 367.996 24.2727C369.496 23.1515 371.223 22.5909 373.177 22.5909C373.662 22.5909 374.185 22.6212 374.746 22.6818C375.306 22.7424 375.799 22.8258 376.223 22.9318V31.5227C375.768 31.3864 375.14 31.2652 374.337 31.1591C373.534 31.053 372.799 31 372.132 31C370.708 31 369.435 31.3106 368.314 31.9318C367.208 32.5379 366.329 33.3864 365.677 34.4773C365.041 35.5682 364.723 36.8258 364.723 38.25V58H355.041ZM402.335 43.1364V23.0909H412.017V58H402.721V51.6591H402.358C401.57 53.7045 400.259 55.3485 398.426 56.5909C396.608 57.8333 394.388 58.4545 391.767 58.4545C389.434 58.4545 387.38 57.9242 385.608 56.8636C383.835 55.803 382.449 54.2955 381.449 52.3409C380.464 50.3864 379.964 48.0455 379.949 45.3182V23.0909H389.63V43.5909C389.646 45.6515 390.199 47.2803 391.29 48.4773C392.38 49.6742 393.843 50.2727 395.676 50.2727C396.843 50.2727 397.934 50.0076 398.949 49.4773C399.964 48.9318 400.782 48.1288 401.403 47.0682C402.04 46.0076 402.35 44.697 402.335 43.1364Z" fill="white"/>
<defs>
<linearGradient id="paint0_linear_1_11" x1="209" y1="66" x2="209.401" y2="10.9974" gradientUnits="userSpaceOnUse">
<stop stop-color="#0085FF"/>
<stop offset="0.265" stop-color="#69EAEA" stop-opacity="0.5"/>
<stop offset="0.649124" stop-color="#A4E185" stop-opacity="0.2"/>
<stop offset="1" stop-color="#A4E185" stop-opacity="0"/>
</linearGradient>
</defs>
</svg>
